External Loads File
version=1
nRows=85
nColumns=13
Range=5.000000e-03-10 seconds
endheader
time 	forceRightX 	forceRightY 	forceRightZ 	pointRightX 	pointRightY 	pointRightZ 	forceLeftX 	forceLeftY 	forceLeftZ 	pointLeftX 	pointLeftY 	pointLeftZ 		
7.505000 33.671010 -28.530740 -0.000000 0.149215 0.390720 -0.144747 -26.432787 908.369301 -0.000000 0.417953 0.253286 -0.382211
7.510000 33.759357 -28.394135 -0.000000 0.153725 0.400609 -0.144911 -17.939580 921.034015 -0.000000 0.413836 0.243264 -0.382153
7.515000 31.662229 -29.778159 -0.000000 0.158795 0.410312 -0.145104 -8.710008 933.197848 -0.000000 0.408892 0.233692 -0.381834
7.520000 27.287271 -32.357473 -0.000000 0.164389 0.419828 -0.145401 1.974155 944.061571 -0.000000 0.403734 0.224478 -0.381561
7.525000 20.718873 -35.754772 -0.000000 0.170560 0.429054 -0.145699 15.503564 952.632379 -0.000000 0.398123 0.215430 -0.381186
7.530000 12.319182 -39.522539 -0.000000 0.177215 0.437851 -0.146113 30.270410 957.981503 -0.000000 0.392000 0.207158 -0.380807
7.535000 2.521356 -43.331071 -0.000000 0.184336 0.446236 -0.146502 45.718850 959.376485 -0.000000 0.385449 0.199863 -0.380461
7.540000 -8.337981 -46.935200 -0.000000 0.191834 0.454274 -0.147071 63.634611 956.217369 -0.000000 0.378376 0.192619 -0.380258
7.545000 -19.825324 -50.138229 -0.000000 0.200078 0.461560 -0.147306 82.605667 948.312456 -0.000000 0.370949 0.185840 -0.380152
7.550000 -31.563973 -52.803172 -0.000000 0.208444 0.468415 -0.147818 101.454796 935.808618 -0.000000 0.363094 0.179692 -0.379968
7.555000 -43.427855 -54.591378 -0.000000 0.218363 0.474515 -0.147494 122.467945 918.706840 -0.000000 0.355448 0.173345 -0.380408
7.560000 -54.865017 -55.357952 -0.000000 0.226928 0.480546 -0.148449 139.845303 898.102319 -0.000000 0.346971 0.168191 -0.380529
7.565000 -65.941716 -54.330699 -0.000000 0.236460 0.485252 -0.148949 157.755475 873.730213 -0.000000 0.338016 0.163616 -0.380332
7.570000 -76.311470 -50.897960 -0.000000 0.246110 0.489673 -0.149475 173.881896 846.059756 -0.000000 0.328969 0.159609 -0.380306
7.575000 -85.635048 -44.307541 -0.000000 0.255720 0.493563 -0.150045 187.695035 815.159017 -0.000000 0.319650 0.156238 -0.380269
7.580000 -93.501474 -33.815620 -0.000000 0.265706 0.496783 -0.150427 199.702134 780.725614 -0.000000 0.310169 0.153537 -0.380196
7.585000 -99.357387 -19.078766 -0.000000 0.275791 0.499389 -0.150947 209.332841 742.657110 -0.000000 0.300568 0.151472 -0.380196
7.590000 -102.701909 0.011728 -0.000000 0.286185 0.501312 -0.151202 217.168572 700.519176 -0.000000 0.290863 0.150104 -0.380224
7.595000 -103.123305 22.977931 -0.000000 0.296329 0.502478 -0.151584 222.234376 654.314896 -0.000000 0.281077 0.149424 -0.380214
7.600000 -100.380797 49.261797 -0.000000 0.306463 0.502997 -0.152016 225.234528 603.664877 -0.000000 0.271145 0.149614 -0.380190
7.605000 -94.479481 77.814598 -0.000000 0.316418 0.503415 -0.152408 225.298337 548.995771 -0.000000 0.261256 0.150583 -0.380146
7.610000 -86.086096 107.240047 -0.000000 0.324675 0.503086 -0.153029 220.292110 491.665806 -0.000000 0.251372 0.152287 -0.379947
7.615000 -75.175997 137.203609 -0.000000 0.333560 0.501593 -0.153211 213.443502 430.964702 -0.000000 0.241630 0.154821 -0.379670
7.620000 -63.019689 166.766702 -0.000000 0.341737 0.499596 -0.153284 202.344363 368.932606 -0.000000 0.232164 0.157871 -0.379374
7.625000 -50.317178 196.041574 -0.000000 0.349593 0.496720 -0.153293 187.779683 306.498030 -0.000000 0.222974 0.161686 -0.379084
7.630000 -38.283099 225.422976 -0.000000 0.356667 0.493207 -0.152964 169.598129 245.328515 -0.000000 0.214101 0.166017 -0.378825
7.635000 -27.549665 255.760060 -0.000000 0.363080 0.488674 -0.152956 148.761490 186.547842 -0.000000 0.205535 0.170801 -0.378543
7.640000 -18.080317 287.951215 -0.000000 0.369706 0.483219 -0.152428 126.352008 131.058659 -0.000000 0.197347 0.176130 -0.378415
7.645000 -10.856589 322.608196 -0.000000 0.375564 0.477028 -0.151984 102.724700 80.323421 -0.000000 0.189479 0.181960 -0.378269
7.650000 -5.995965 360.082972 -0.000000 0.381048 0.470167 -0.151514 78.937132 35.238335 -0.000000 0.182079 0.188178 -0.378247
7.655000 -3.307948 400.223290 -0.000000 0.386156 0.462542 -0.151036 55.997332 -3.462475 -0.000000 0.175001 0.194921 -0.378308
7.660000 -2.185635 442.320699 -0.000000 0.391160 0.454227 -0.150547 34.695431 -35.306182 -0.000000 0.167605 0.201797 -0.377504
7.665000 -3.799904 485.213238 -0.000000 0.395902 0.445407 -0.149917 15.777460 -60.016222 -0.000000 0.161336 0.209412 -0.377547
7.670000 -7.817324 527.532534 -0.000000 0.400401 0.436139 -0.149340 -0.217203 -77.866145 -0.000000 0.155668 0.217429 -0.377733
7.675000 -13.038362 567.974262 -0.000000 0.405214 0.426574 -0.149489 -13.102995 -89.366546 -0.000000 0.150192 0.225886 -0.377714
7.680000 -20.811287 605.446641 -0.000000 0.409631 0.416759 -0.149871 -22.427560 -95.315093 -0.000000 0.145463 0.234625 -0.377651
7.685000 -30.406056 639.284518 -0.000000 0.413227 0.406559 -0.149556 -28.208835 -96.686810 -0.000000 0.141141 0.243724 -0.377771
7.690000 -40.224357 669.340251 -0.000000 0.417171 0.396102 -0.149196 -30.807713 -94.473389 -0.000000 0.137344 0.253146 -0.377832
7.695000 -51.293837 695.724216 -0.000000 0.420384 0.385706 -0.149374 -30.377632 -89.716542 -0.000000 0.134077 0.262844 -0.377936
7.700000 -62.049278 718.957995 -0.000000 0.423125 0.375184 -0.149431 -27.529635 -83.148976 -0.000000 0.131464 0.272869 -0.377967
7.705000 -72.069148 739.636504 -0.000000 0.425303 0.364454 -0.149293 -22.718171 -75.344876 -0.000000 0.129402 0.282883 -0.378045
7.710000 -79.754846 758.492307 -0.000000 0.426960 0.353522 -0.149147 -16.483389 -66.680628 -0.000000 0.127926 0.293183 -0.378131
7.715000 -85.095089 776.065928 -0.000000 0.427939 0.342511 -0.149112 -9.139868 -57.482631 -0.000000 0.127093 0.303608 -0.378169
7.720000 -87.898595 792.850274 -0.000000 0.428716 0.331559 -0.149545 -1.001247 -48.013138 -0.000000 0.126921 0.314084 -0.378231
7.725000 -87.555538 809.326276 -0.000000 0.428682 0.320557 -0.149573 7.623330 -38.514581 -0.000000 0.127312 0.324643 -0.378326
7.730000 -84.582705 825.804288 -0.000000 0.428140 0.309575 -0.149676 16.538596 -29.214276 -0.000000 0.128260 0.335058 -0.378389
7.735000 -75.459698 842.953770 -0.000000 0.426863 0.298538 -0.148574 25.454740 -20.467763 -0.000000 0.129925 0.346432 -0.378493
7.740000 -67.567528 860.371217 -0.000000 0.425129 0.287724 -0.148403 34.361428 -12.421268 -0.000000 0.132108 0.356513 -0.378413
7.745000 -56.775372 878.711280 -0.000000 0.422925 0.277091 -0.148336 42.841562 -5.590258 -0.000000 0.134914 0.366767 -0.378522
7.750000 -42.719912 898.165388 -0.000000 0.420266 0.266459 -0.149196 50.516843 -0.434208 -0.000000 0.138470 0.377187 -0.378674
7.755000 -27.768257 918.707359 -0.000000 0.416852 0.256186 -0.148879 56.922874 2.819116 -0.000000 0.142520 0.387275 -0.378624
7.760000 -11.291301 940.347147 -0.000000 0.412964 0.246081 -0.148685 61.596703 3.891347 -0.000000 0.147088 0.397213 -0.378591
7.765000 6.817828 962.841756 -0.000000 0.408567 0.236230 -0.148411 64.134629 2.660640 -0.000000 0.152455 0.406941 -0.378630
7.770000 25.210236 985.723507 -0.000000 0.403605 0.226990 -0.147577 64.199174 -0.722109 -0.000000 0.158347 0.416351 -0.378605
7.775000 45.718673 1008.224829 -0.000000 0.398082 0.217697 -0.147033 61.586723 -6.154838 -0.000000 0.164834 0.425385 -0.378501
7.780000 66.209651 1029.485680 -0.000000 0.392221 0.209018 -0.146833 56.243451 -13.166851 -0.000000 0.171865 0.433988 -0.378482
7.785000 87.503776 1048.427797 -0.000000 0.385871 0.200900 -0.146633 48.228861 -21.410889 -0.000000 0.179446 0.442208 -0.378477
7.790000 109.297797 1063.974860 -0.000000 0.379019 0.193157 -0.146528 37.755386 -30.478173 -0.000000 0.187431 0.449828 -0.378379
7.795000 130.892156 1075.164253 -0.000000 0.371783 0.186095 -0.146431 25.192459 -40.011806 -0.000000 0.195850 0.456896 -0.378495
7.800000 150.687106 1081.321903 -0.000000 0.364132 0.179497 -0.146356 11.032689 -49.688855 -0.000000 0.203961 0.463511 -0.377768
7.805000 171.864940 1081.293604 -0.000000 0.356155 0.173590 -0.146208 -4.399824 -59.216521 -0.000000 0.213094 0.469713 -0.377914
7.810000 191.463759 1074.965318 -0.000000 0.347964 0.168130 -0.146008 -20.482317 -68.163167 -0.000000 0.222421 0.475236 -0.377871
7.815000 213.965372 1061.126900 -0.000000 0.339429 0.163351 -0.145896 -37.053836 -75.891085 -0.000000 0.233352 0.480273 -0.378619
7.820000 228.768384 1041.581051 -0.000000 0.330873 0.159054 -0.145481 -52.905851 -82.111150 -0.000000 0.242747 0.484706 -0.377953
7.825000 242.180880 1014.885174 -0.000000 0.322151 0.155340 -0.145122 -67.938293 -86.024810 -0.000000 0.252587 0.488487 -0.377790
7.830000 252.840372 981.031789 -0.000000 0.313377 0.152367 -0.144711 -81.522649 -87.092780 -0.000000 0.262540 0.491735 -0.377805
7.835000 261.651184 939.462781 -0.000000 0.304453 0.149949 -0.144298 -93.266938 -84.761529 -0.000000 0.272863 0.494350 -0.377514
7.840000 266.638581 890.445760 -0.000000 0.295491 0.148088 -0.143778 -102.604487 -78.972769 -0.000000 0.282987 0.496283 -0.377571
7.845000 267.844910 833.901910 -0.000000 0.286602 0.146828 -0.143275 -109.269475 -69.770277 -0.000000 0.293060 0.497578 -0.377645
7.850000 265.103055 770.083589 -0.000000 0.277705 0.146291 -0.142692 -113.122845 -57.449658 -0.000000 0.302909 0.498149 -0.377821
7.855000 258.762430 699.477015 -0.000000 0.268843 0.146589 -0.142198 -114.214200 -42.453047 -0.000000 0.312707 0.498204 -0.377794
7.860000 248.300726 623.382636 -0.000000 0.260014 0.147583 -0.141795 -112.710268 -25.495479 -0.000000 0.322038 0.497525 -0.378525
7.865000 234.399917 543.148146 -0.000000 0.251210 0.149392 -0.141461 -109.041264 -7.092897 -0.000000 0.331082 0.496387 -0.378789
7.870000 217.899472 460.402165 -0.000000 0.242410 0.152167 -0.141239 -103.763471 12.408456 -0.000000 0.340021 0.494611 -0.379039
7.875000 198.683876 377.482705 -0.000000 0.233715 0.155683 -0.141199 -97.564159 32.663893 -0.000000 0.348482 0.492137 -0.379346
7.880000 177.582226 296.443808 -0.000000 0.225072 0.160034 -0.141421 -91.213941 53.819700 -0.000000 0.356450 0.488990 -0.379683
7.885000 155.251112 219.348697 -0.000000 0.216529 0.165048 -0.141710 -85.459942 76.289508 -0.000000 0.363886 0.485200 -0.380022
7.890000 132.508451 147.880039 -0.000000 0.208297 0.170669 -0.142150 -80.869318 100.770398 -0.000000 0.371023 0.480596 -0.380463
7.895000 109.932316 83.457871 -0.000000 0.200230 0.176812 -0.142354 -77.883035 128.006087 -0.000000 0.377447 0.475256 -0.380737
7.900000 88.256496 26.655887 -0.000000 0.192304 0.183418 -0.142662 -76.142398 159.047216 -0.000000 0.384330 0.469034 -0.382106
7.905000 67.646523 -21.491997 -0.000000 0.184918 0.190551 -0.143087 -76.315726 194.086422 -0.000000 0.389986 0.462416 -0.382228
7.910000 48.644682 -61.181095 -0.000000 0.177847 0.198243 -0.143279 -77.525079 233.670780 -0.000000 0.395287 0.455013 -0.382748
7.915000 31.549764 -92.424911 -0.000000 0.171234 0.206368 -0.143372 -79.493130 277.503619 -0.000000 0.399981 0.446896 -0.383131
7.920000 16.600958 -115.510044 -0.000000 0.165105 0.214907 -0.143448 -81.725608 324.844807 -0.000000 0.404169 0.438157 -0.383508
7.925000 3.981210 -130.876421 -0.000000 0.159406 0.223699 -0.143423 -83.775210 374.548227 -0.000000 0.408237 0.429018 -0.383652
